<svg aria-hidden="true" style="position: absolute; width: 0; height: 0; overflow: hidden;" version="1.1" xmlns="http://www.w3.org/2000/svg" xmlns:xlink="http://www.w3.org/1999/xlink">
  <defs>


<symbol id="icon-Link-telegram" viewBox="0 0 32 32">
<path fill="#5fcdfc" style="fill: var(--color1, #5fcdfc)" d="M0.495 8.629c0.516-4.278 3.858-7.6 8.137-8.115 2.364-0.285 5.001-0.514 7.368-0.514s5.004 0.229 7.368 0.514c4.279 0.515 7.621 3.837 8.137 8.115 0.276 2.291 0.495 4.848 0.495 7.189 0 2.402-0.231 5.082-0.517 7.482-0.514 4.312-3.87 7.677-8.182 8.194-2.347 0.281-4.957 0.506-7.301 0.506s-4.954-0.225-7.301-0.506c-4.312-0.516-7.668-3.882-8.182-8.194-0.286-2.401-0.517-5.081-0.517-7.482 0-2.342 0.219-4.898 0.495-7.189z"></path>
<path fill="#fefffc" style="fill: var(--color2, #fefffc)" d="M9.052 15.47c0.034-0.017 0.067-0.032 0.1-0.047 0.571-0.261 1.149-0.506 1.727-0.751 0.031 0 0.083-0.036 0.113-0.047 0.045-0.019 0.089-0.037 0.134-0.057l0.257-0.109c0.172-0.072 0.343-0.145 0.514-0.217 0.343-0.145 0.685-0.29 1.028-0.435 0.685-0.29 1.372-0.58 2.057-0.87s1.372-0.58 2.057-0.87c0.685-0.29 1.372-0.58 2.057-0.87s1.372-0.58 2.057-0.87c0.152-0.065 0.317-0.162 0.481-0.19 0.137-0.024 0.271-0.071 0.409-0.097 0.262-0.049 0.551-0.069 0.802 0.038 0.087 0.037 0.167 0.090 0.233 0.156 0.318 0.311 0.274 0.822 0.206 1.26-0.469 3.052-0.938 6.105-1.408 9.157-0.064 0.419-0.152 0.878-0.486 1.143-0.283 0.224-0.685 0.249-1.035 0.154s-0.658-0.296-0.96-0.494c-1.254-0.821-2.508-1.642-3.762-2.462-0.298-0.195-0.63-0.45-0.626-0.803 0.002-0.213 0.13-0.403 0.262-0.572 1.090-1.405 2.662-2.371 3.831-3.711 0.165-0.189 0.295-0.53 0.068-0.639-0.135-0.065-0.29 0.023-0.413 0.107-1.546 1.062-3.091 2.124-4.637 3.185-0.504 0.346-1.033 0.703-1.641 0.788-0.544 0.077-1.091-0.073-1.618-0.226-0.441-0.128-0.882-0.26-1.32-0.395-0.233-0.072-0.474-0.149-0.654-0.311s-0.284-0.435-0.175-0.652c0.068-0.136 0.2-0.221 0.339-0.291l0.002 0.001z"></path>
</symbol>

<symbol id="icon-symbol_logo" viewBox="0 0 32 32">
<path stroke-width="3.0780" stroke-miterlimit="4" stroke-linecap="butt" stroke-linejoin="miter" d="M17.92 0v14.080h14.080"></path>
<path stroke-width="3.0780" stroke-miterlimit="4" stroke-linecap="butt" stroke-linejoin="miter" d="M14.080 32v-14.080h-14.080"></path>
</symbol>

<symbol id="icon-skymaster" viewBox="0 0 155 32">
<path d="M15.746 10.666l-2.961 2.718c-0.906-1.743-2.485-2.615-4.738-2.615-0.372 0-0.755 0.034-1.15 0.103-0.372 0.069-0.755 0.252-1.15 0.551-0.395 0.275-0.592 0.654-0.592 1.136 0 0.528 0.255 0.929 0.766 1.204 0.511 0.252 1.44 0.493 2.787 0.723l2.822 0.516c1.393 0.252 2.52 0.791 3.379 1.617 0.859 0.803 1.289 1.87 1.289 3.2 0 1.629-0.72 3.017-2.16 4.163s-3.333 1.721-5.678 1.721c-3.553 0-6.34-1.032-8.361-3.097l3.135-2.512c1.115 1.468 2.787 2.202 5.017 2.202 1.138 0 1.986-0.218 2.543-0.654 0.581-0.436 0.871-0.895 0.871-1.376 0-0.459-0.209-0.803-0.627-1.032-0.418-0.252-1.068-0.459-1.951-0.619l-2.16-0.378c-4.041-0.711-6.062-2.432-6.062-5.162 0-1.675 0.708-3.028 2.125-4.060 1.44-1.032 3.228-1.548 5.365-1.548 3.135 0 5.632 1.067 7.49 3.2z"></path>
<path d="M35.516 25.187h-5.086l-5.26-7.708-2.439 2.374v5.334h-4.146v-24.293h4.146v13.661l6.793-6.572h5.33l-6.654 6.572 7.316 10.633z"></path>
<path d="M46.28 7.983h4.285l-4.633 15.691c-0.302 1.055-0.557 1.87-0.766 2.443-0.186 0.596-0.488 1.308-0.906 2.133-0.418 0.849-0.848 1.457-1.289 1.824-0.859 0.688-2.044 1.032-3.553 1.032-0.882 0-1.707-0.080-2.473-0.241v-3.579c0.279 0.046 0.662 0.069 1.15 0.069 1.51 0 2.45-0.608 2.822-1.824l-6.306-17.549h4.494l3.902 12.835 3.275-12.835z"></path>
<path d="M52.012 7.983h4.215v1.927c0.441-0.596 1.161-1.147 2.16-1.652 0.999-0.528 2.102-0.791 3.31-0.791 1.022 0 1.962 0.229 2.822 0.688 0.883 0.436 1.556 1.078 2.021 1.927 1.37-1.743 3.24-2.615 5.609-2.615 1.835 0 3.286 0.493 4.355 1.48 1.091 0.986 1.637 2.478 1.637 4.473v11.768h-4.146v-10.529c0-0.275-0.023-0.551-0.070-0.826s-0.163-0.631-0.348-1.067c-0.163-0.436-0.464-0.78-0.906-1.032-0.418-0.275-0.952-0.413-1.603-0.413-1.347 0-2.38 0.585-3.1 1.755-0.557 0.872-0.836 2.214-0.836 4.026v8.086h-4.146v-10.564c0-0.849-0.221-1.606-0.662-2.271s-1.173-0.998-2.195-0.998c-0.79 0-1.521 0.275-2.195 0.826-0.534 0.436-0.941 1.032-1.219 1.789-0.255 0.734-0.406 1.365-0.453 1.892s-0.070 1.227-0.070 2.099v7.226h-4.18v-17.205z"></path>
<path d="M96.673 25.187h-4.947l-0.104-1.342c-1.51 1.17-3.217 1.755-5.121 1.755-1.928 0-3.472-0.505-4.633-1.514-1.138-1.009-1.707-2.26-1.707-3.751 0-3.143 2.067-5.081 6.201-5.815 2.346-0.436 4.134-0.86 5.365-1.273 0-0.803-0.209-1.434-0.627-1.893-0.395-0.459-1.184-0.688-2.369-0.688-2.346 0-3.518 0.86-3.518 2.581l-4.25-0.241c0.023-0.275 0.046-0.505 0.070-0.688s0.093-0.482 0.209-0.895 0.267-0.768 0.453-1.067c0.186-0.321 0.464-0.665 0.836-1.032 0.395-0.39 0.848-0.711 1.359-0.963s1.173-0.459 1.986-0.619c0.813-0.184 1.719-0.275 2.717-0.275 4.877 0 7.316 1.629 7.316 4.886v10.048c0 0.665 0.035 1.17 0.105 1.514 0.093 0.321 0.313 0.745 0.662 1.273zM91.726 18.925v-2.306c-0.906 0.436-2.009 0.757-3.309 0.963-0.581 0.092-1.057 0.183-1.428 0.275-0.371 0.069-0.766 0.195-1.184 0.378-0.418 0.16-0.732 0.39-0.941 0.688-0.186 0.275-0.279 0.619-0.279 1.032 0 0.619 0.232 1.124 0.697 1.514s1.184 0.585 2.16 0.585c1.092 0 2.079-0.264 2.961-0.791 0.883-0.551 1.324-1.33 1.324-2.34z"></path>
<path d="M113.603 10.666l-2.961 2.718c-0.906-1.743-2.485-2.615-4.738-2.615-0.372 0-0.755 0.034-1.15 0.103-0.371 0.069-0.755 0.252-1.15 0.551-0.395 0.275-0.592 0.654-0.592 1.136 0 0.528 0.256 0.929 0.766 1.204 0.511 0.252 1.44 0.493 2.787 0.723l2.822 0.516c1.393 0.252 2.52 0.791 3.379 1.617 0.859 0.803 1.289 1.87 1.289 3.2 0 1.629-0.72 3.017-2.16 4.163s-3.333 1.721-5.678 1.721c-3.553 0-6.34-1.032-8.361-3.097l3.135-2.512c1.115 1.468 2.787 2.202 5.017 2.202 1.138 0 1.986-0.218 2.543-0.654 0.581-0.436 0.871-0.895 0.871-1.376 0-0.459-0.209-0.803-0.627-1.032-0.418-0.252-1.068-0.459-1.951-0.619l-2.16-0.378c-4.041-0.711-6.062-2.432-6.062-5.162 0-1.675 0.708-3.028 2.125-4.060 1.44-1.032 3.228-1.548 5.365-1.548 3.135 0 5.632 1.067 7.49 3.2z"></path>
<path d="M114.352 10.907v-2.925h2.543v-6.125h4.181v6.125h3.728v2.925h-3.728v8.534c0 0.918 0.139 1.526 0.418 1.824 0.325 0.344 0.848 0.516 1.568 0.516 0.65 0 1.231-0.069 1.742-0.206v3.475c-1.486 0.184-2.485 0.275-2.996 0.275-1.811 0-3.089-0.333-3.832-0.998-0.72-0.665-1.080-1.72-1.080-3.166v-10.254h-2.543z"></path>
<path d="M142.587 17.411h-12.89c0.023 0.229 0.070 0.493 0.139 0.791s0.221 0.665 0.453 1.101c0.232 0.413 0.511 0.791 0.836 1.136 0.348 0.344 0.825 0.642 1.428 0.895 0.604 0.229 1.289 0.344 2.055 0.344 2.090 0 3.611-0.791 4.564-2.374l3.553 2.030c-2.183 2.913-5.017 4.37-8.5 4.37-2.648 0-4.807-0.826-6.48-2.478-1.649-1.674-2.473-3.923-2.473-6.744 0-2.913 0.848-5.138 2.543-6.675 1.695-1.56 3.762-2.34 6.201-2.34 1.579 0 2.95 0.298 4.111 0.895 1.184 0.573 2.079 1.365 2.683 2.374 0.627 0.986 1.080 2.030 1.359 3.131s0.418 2.282 0.418 3.544zM129.836 14.383h8.152c-0.023-0.298-0.093-0.608-0.209-0.929-0.093-0.344-0.267-0.734-0.523-1.17s-0.662-0.791-1.219-1.067c-0.534-0.298-1.184-0.447-1.951-0.447-0.79 0-1.486 0.149-2.090 0.447-0.581 0.275-1.022 0.654-1.324 1.136-0.279 0.482-0.476 0.872-0.592 1.17-0.093 0.275-0.174 0.562-0.244 0.86z"></path>
<path d="M144.835 7.983h4.041v2.443c0.906-1.881 2.636-2.822 5.191-2.822h0.349v4.232c-2.811 0-4.553 1.055-5.226 3.166-0.209 0.642-0.313 1.583-0.313 2.822v7.364h-4.041v-17.205z"></path>
</symbol>

<symbol id="icon-arrow-top-right" viewBox="0 0 30 32">
<path stroke-width="3.4286" stroke-miterlimit="4" stroke-linecap="butt" stroke-linejoin="miter" d="M1.646 29.714l19.749-21.009M23.040 2.286h-23.040M27.429 7.538v22.176"></path>
</symbol>

<symbol id="icon-arrow-bottom" viewBox="0 0 53 32">
<path stroke-width="8" stroke-miterlimit="4" stroke-linecap="butt" stroke-linejoin="miter" d="M5.333 5.333l20.27 20.27 20.27-20.27"></path>
</symbol>

<symbol id="icon-active" viewBox="0 0 384 32">
<path d="M14.4 19.2v12.8h-6.4c-1.273 0-2.494-0.506-3.394-1.406s-1.406-2.121-1.406-3.394v-6.4c0-0.424 0.169-0.831 0.469-1.131s0.707-0.469 1.131-0.469h9.6zM27.2 19.2c0.424 0 0.831 0.169 1.131 0.469s0.469 0.707 0.469 1.131v6.4c0 1.273-0.506 2.494-1.406 3.394s-2.121 1.406-3.394 1.406h-6.4v-12.8h9.6zM23.2 0.001c0.945-0 1.874 0.239 2.702 0.694s1.526 1.113 2.032 1.912 0.8 1.712 0.857 2.655c0.057 0.943-0.125 1.885-0.53 2.739h0.539c0.849 0 1.663 0.337 2.263 0.937s0.937 1.414 0.937 2.263v1.6c0 0.849-0.337 1.662-0.937 2.263s-1.414 0.937-2.263 0.937h-11.2v-8h-3.2v8h-11.2c-0.849 0-1.663-0.337-2.263-0.937s-0.937-1.414-0.937-2.263v-1.6c0-0.849 0.337-1.663 0.937-2.263s1.414-0.937 2.263-0.937h0.539c-0.355-0.75-0.54-1.57-0.539-2.4 0-3.093 2.507-5.6 5.573-5.6 2.808-0.048 5.299 1.747 7.010 4.694l0.218 0.389c1.653-3.062 4.096-4.982 6.866-5.080l0.334-0.003zM8.8 3.201c-0.636 0-1.247 0.253-1.697 0.703s-0.703 1.060-0.703 1.697c0 0.636 0.253 1.247 0.703 1.697s1.061 0.703 1.697 0.703h5.029c-1.186-3.048-3.118-4.832-5.029-4.8zM23.173 3.201c-1.888-0.032-3.816 1.754-5.002 4.8h5.029c0.637-0.004 1.245-0.26 1.693-0.713s0.697-1.064 0.693-1.701c-0.004-0.636-0.26-1.245-0.713-1.693s-1.064-0.697-1.701-0.693z"></path>
</symbol>

<symbol id="icon-teenyicons-location" viewBox="0 0 32 32">
<path d="M17.067 2.172v-2.172h-2.133v2.172c-3.298 0.254-6.397 1.679-8.736 4.017s-3.767 5.436-4.023 8.734h-2.174v2.133h2.174c0.256 3.3 1.683 6.4 4.022 8.741s5.438 3.77 8.738 4.029v2.174h2.133v-2.174c3.3-0.259 6.398-1.688 8.738-4.029s3.766-5.441 4.022-8.741h2.174v-2.133h-2.174c-0.256-3.298-1.683-6.396-4.023-8.734s-5.438-3.763-8.736-4.017zM17.067 6.4v8.523h8.533v2.133h-8.533v8.544h-2.133v-8.544h-8.533v-2.133h8.533v-8.523h2.133z"></path>
</symbol>

<symbol id="icon-tdesign-calendar-filled" viewBox="0 0 32 32">
<path d="M8 2v3.333h-5.333v6.667h26.667v-6.667h-5.333v-3.333h-2.667v3.333h-10.667v-3.333h-2.667zM29.333 29.333v-14.667h-26.667v14.667h26.667z"></path>
</symbol>

<symbol id="icon-slash" viewBox="0 0 19 32">
<path d="M0.656 30.288l14.411-29.717h3.211l-14.411 29.717h-3.211z"></path>
</symbol>

  </defs>
</svg>
